<svg width="25" height="25" viewBox="0 0 25 25" fill="none" xmlns="http://www.w3.org/2000/svg">
<path fill-rule="evenodd" clip-rule="evenodd" d="M4.55275 0C3.39936 0 2.46436 0.973968 2.46436 2.17541V10.3373C2.46436 11.5388 3.39936 12.5128 4.55275 12.5128H20.9474C22.1008 12.5128 23.0358 11.5388 23.0358 10.3373V2.17541C23.0358 0.973966 22.1008 0 20.9474 0H4.55275ZM9.18586 16.8595C9.18586 18.2809 8.07965 19.4332 6.71506 19.4332C5.35046 19.4332 4.24425 18.2809 4.24425 16.8595C4.24425 15.438 5.35046 14.2857 6.71506 14.2857C8.07965 14.2857 9.18586 15.438 9.18586 16.8595ZM18.7936 19.4332C20.1582 19.4332 21.2644 18.2809 21.2644 16.8595C21.2644 15.438 20.1582 14.2857 18.7936 14.2857C17.429 14.2857 16.3228 15.438 16.3228 16.8595C16.3228 18.2809 17.429 19.4332 18.7936 19.4332ZM6.71491 20.8232C4.73044 20.8232 3.08323 22.3273 2.76676 24.3009C2.70604 24.6795 3.01058 24.993 3.37905 24.993H10.0508C10.4193 24.993 10.7238 24.6795 10.6631 24.3009C10.3466 22.3273 8.6994 20.8232 6.71491 20.8232ZM14.8454 24.3009C15.1619 22.3273 16.8091 20.8232 18.7936 20.8232C20.7781 20.8232 22.4253 22.3273 22.7418 24.3009C22.8025 24.6795 22.498 24.993 22.1294 24.993H15.4577C15.0893 24.993 14.7847 24.6795 14.8454 24.3009ZM14.676 3.78836C14.676 4.89625 13.8138 5.79439 12.7502 5.79439C11.6866 5.79439 10.8244 4.89625 10.8244 3.78836C10.8244 2.68045 11.6866 1.78232 12.7502 1.78232C13.8138 1.78232 14.676 2.68045 14.676 3.78836ZM9.36429 10.1018C9.63569 8.40938 11.0483 7.11943 12.7501 7.11943C14.4519 7.11943 15.8644 8.40938 16.1358 10.1018C16.1879 10.4265 15.9267 10.6953 15.6108 10.6953H9.88937C9.57338 10.6953 9.31222 10.4265 9.36429 10.1018Z" fill="#545454"/>
</svg>
