<?xml version="1.0" encoding="UTF-8"?>
<svg id="Layer_2" data-name="Layer 2" xmlns="http://www.w3.org/2000/svg" viewBox="0 0 2255.41 504.27">
  <defs>
    <style>
      .cls-1 {
        fill: #f7941d;
      }

      .cls-2 {
        fill: #fbd240;
      }
    </style>
  </defs>
  <g id="Layer_1-2" data-name="Layer 1">
    <g>
      <path class="cls-1" d="M468.33,252.01c0,53.98-10.38,99.74-31.14,137.27-20.76,37.53-48.83,66.04-84.2,85.52-35.38,19.49-75.02,29.23-118.94,29.23s-83.77-9.82-119.06-29.47c-35.3-19.64-63.28-48.19-83.96-85.64C10.34,351.47,0,305.84,0,252.01S10.34,152.28,31.02,114.75C51.7,77.22,79.69,48.71,114.99,29.23,150.28,9.74,189.97,0,234.05,0s83.56,9.74,118.94,29.23c35.37,19.49,63.44,47.99,84.2,85.52,20.76,37.53,31.14,83.29,31.14,137.27Zm-121.22,0c0-31.94-4.51-58.93-13.54-80.97-9.02-22.04-21.96-38.73-38.81-50.07-16.85-11.34-37.09-17.01-60.73-17.01s-43.68,5.67-60.61,17.01c-16.93,11.34-29.91,28.03-38.93,50.07-9.02,22.04-13.54,49.03-13.54,80.97s4.51,58.93,13.54,80.97c9.02,22.04,22,38.73,38.93,50.07,16.93,11.34,37.13,17.01,60.61,17.01s43.88-5.67,60.73-17.01c16.85-11.34,29.78-28.03,38.81-50.07,9.02-22.04,13.54-49.03,13.54-80.97Z"/>
      <path class="cls-1" d="M654.46,287.47v209.85h-117.14V129.36h111.39v67.55h4.07c8.15-22.52,22.04-40.2,41.68-53.06,19.64-12.85,43.04-19.29,70.19-19.29s48.35,5.79,67.43,17.37c19.08,11.58,33.93,27.71,44.56,48.39,10.62,20.68,15.85,44.84,15.69,72.47v234.53h-117.14v-211.53c.16-20.44-4.99-36.41-15.45-47.91-10.46-11.5-24.96-17.25-43.48-17.25-12.3,0-23.12,2.68-32.46,8.03-9.34,5.35-16.53,12.98-21.56,22.88-5.03,9.9-7.63,21.88-7.79,35.93Z"/>
      <path class="cls-1" d="M1137.17,504.27c-38.49,0-71.67-7.62-99.54-22.88-27.87-15.25-49.27-37.05-64.2-65.4-14.93-28.35-22.4-62.08-22.4-101.21s7.51-71.27,22.52-99.78c15.01-28.51,36.17-50.7,63.48-66.6,27.31-15.89,59.49-23.84,96.54-23.84,26.19,0,50.15,4.07,71.87,12.22,21.72,8.15,40.49,20.21,56.3,36.17,15.81,15.97,28.11,35.66,36.89,59.05,8.78,23.4,13.18,50.19,13.18,80.37v29.23h-319.81v-68.03h210.81c-.16-12.46-3.11-23.55-8.86-33.3-5.75-9.74-13.62-17.37-23.6-22.88-9.98-5.51-21.44-8.26-34.38-8.26s-24.83,2.92-35.21,8.74c-10.38,5.83-18.61,13.74-24.67,23.72-6.07,9.98-9.26,21.28-9.58,33.9v69.23c0,15.01,2.95,28.15,8.86,39.41,5.91,11.26,14.29,20,25.15,26.23,10.86,6.23,23.79,9.34,38.81,9.34,10.38,0,19.8-1.44,28.27-4.31,8.46-2.87,15.73-7.1,21.8-12.7,6.07-5.59,10.62-12.46,13.66-20.6l107.56,3.11c-4.47,24.12-14.25,45.08-29.35,62.88-15.09,17.81-34.86,31.62-59.29,41.44-24.43,9.82-52.7,14.73-84.8,14.73Z"/>
      <path class="cls-2" d="M1553.28,497.32h-181.34V6.71h181.11c49.99,0,93.07,9.78,129.24,29.35,36.17,19.56,64.08,47.67,83.73,84.32,19.64,36.65,29.46,80.45,29.46,131.4s-9.78,95.03-29.35,131.76c-19.56,36.73-47.47,64.88-83.72,84.44-36.26,19.57-79.29,29.35-129.12,29.35Zm-62.76-101.09h58.21c27.47,0,50.74-4.67,69.83-14.01,19.08-9.34,33.54-24.59,43.36-45.76,9.82-21.16,14.73-49.39,14.73-84.68s-4.95-63.44-14.85-84.44c-9.9-21-24.48-36.17-43.72-45.52-19.25-9.34-42.92-14.01-71.03-14.01h-56.54V396.23Z"/>
      <path class="cls-2" d="M1864.46,497.32V6.71h204.58c36.73,0,67.51,5.19,92.35,15.57,24.83,10.38,43.52,24.91,56.06,43.6,12.54,18.69,18.8,40.33,18.8,64.92,0,18.69-3.92,35.33-11.74,49.95-7.83,14.61-18.61,26.71-32.34,36.29-13.74,9.58-29.63,16.29-47.67,20.12v4.79c19.8,.96,38.13,6.31,54.98,16.05,16.85,9.74,30.38,23.28,40.6,40.61,10.22,17.33,15.33,37.81,15.33,61.45,0,26.35-6.71,49.87-20.12,70.55-13.42,20.68-32.82,36.97-58.21,48.87-25.39,11.9-56.22,17.85-92.47,17.85h-220.15Zm118.58-288.91h65.64c12.94,0,24.43-2.16,34.5-6.47,10.06-4.31,17.93-10.54,23.6-18.68,5.67-8.15,8.5-17.97,8.5-29.47,0-16.45-5.83-29.38-17.49-38.81-11.66-9.42-27.39-14.13-47.19-14.13h-67.56v107.56Zm0,193.32h73.3c25.71,0,44.68-4.87,56.89-14.61,12.22-9.74,18.33-23.32,18.33-40.72,0-12.61-2.96-23.51-8.86-32.7-5.91-9.18-14.29-16.29-25.15-21.32-10.86-5.03-23.88-7.55-39.05-7.55h-75.46v116.9Z"/>
    </g>
  </g>
</svg>