<svg width="26" height="25" viewBox="0 0 26 25" fill="none" xmlns="http://www.w3.org/2000/svg">
<g clip-path="url(#clip0_21_457)">
<path fill-rule="evenodd" clip-rule="evenodd" d="M1.14286 0.223663C0.649746 0.223663 0.25 0.62341 0.25 1.11652V18.9736C0.25 19.4668 0.649746 19.8664 1.14286 19.8664H9.63582C9.3397 19.0288 9.17857 18.1272 9.17857 17.1879C9.17857 14.9176 10.1201 12.8672 11.6339 11.4059V2.5495C11.1284 1.19123 9.82007 0.223663 8.28571 0.223663H1.14286ZM13.8661 2.54948V9.88087C14.8853 9.41305 16.0194 9.15223 17.2143 9.15223C21.3457 9.15223 24.7489 12.27 25.1995 16.2811H25.25V1.11652C25.25 0.62341 24.8502 0.223663 24.3571 0.223663H17.2143C15.6799 0.223663 14.3716 1.19121 13.8661 2.54948ZM17.2143 14.0629C15.4884 14.0629 14.0893 15.4621 14.0893 17.1879C14.0893 18.9138 15.4884 20.3129 17.2143 20.3129C18.9402 20.3129 20.3393 18.9138 20.3393 17.1879C20.3393 15.4621 18.9402 14.0629 17.2143 14.0629ZM11.4107 17.1879C11.4107 13.9827 14.0091 11.3844 17.2143 11.3844C20.4195 11.3844 23.0179 13.9827 23.0179 17.1879C23.0179 18.3054 22.7021 19.3489 22.1548 20.2345L24.4105 22.49C24.9336 23.0131 24.9336 23.8611 24.4105 24.3841C23.8875 24.9072 23.0395 24.9072 22.5164 24.3841L20.2609 22.1286C19.3754 22.6757 18.3316 22.9914 17.2143 22.9914C14.0091 22.9914 11.4107 20.3932 11.4107 17.1879Z" fill="#545454"/>
</g>
<defs>
<clipPath id="clip0_21_457">
<rect width="25" height="25" fill="white" transform="translate(0.25)"/>
</clipPath>
</defs>
</svg>
